# xmcd CD database file
#
# Track frame offsets:
#	182
#	18390
#	32500
#	49267
#	63492
#	78777
#	97325
#	114285
#	132247
#	148822
#	165517
#	181057
#
# Disc length: 2652 seconds
#
# Revision: 10
# Processed by: cddbd v1.5.2PL0 Copyright (c) Steve Scherf et al.
# Submitted via: CDex 1.82
#
DISCID=9a0a5a0c
DTITLE=Tom Petty and the Heartbreakers - Into The Great Wide Open
DYEAR=1991
DGENRE=Pop/Rock
TTITLE0=Learning To Fly
TTITLE1=Kings Highway
TTITLE2=Into The Great Wide Open
TTITLE3=Two Gunslingers
TTITLE4=The Dark Of The Sun
TTITLE5=All Or Nothin'
TTITLE6=All The Wrong Reasons
TTITLE7=Too Good To Be True
TTITLE8=Out In The Cold
TTITLE9=You And I will Meet Again
TTITLE10=Makin' Some Noise
TTITLE11=Built To Last
EXTD=Label: MCA Records Inc.\nMCD 10317 | MCAD 10317 YEAR: 1991
EXTT0=
EXTT1=
EXTT2=
EXTT3=
EXTT4=
EXTT5=
EXTT6=
EXTT7=
EXTT8=
EXTT9=
EXTT10=
EXTT11=
PLAYORDER=
